<svg width="24" height="24" viewBox="0 0 24 24" fill="none" xmlns="http://www.w3.org/2000/svg">
<rect width="24" height="24" rx="12" fill="white" fill-opacity="0.5"/>
<g clip-path="url(#clip0_74_4095)">
<path d="M11.4192 18.9987C9.88343 18.9987 8.34768 18.9987 6.81139 18.9987C5.73451 18.9987 5 18.2649 5 17.1862C5 14.0987 5 11.0118 5.00055 7.92479C5.00055 7.02129 5.57481 6.33725 6.46082 6.18128C6.56309 6.16323 6.66919 6.16049 6.77365 6.16049C8.50082 6.15939 10.228 6.15939 11.9557 6.16049C12.2724 6.16049 12.4703 6.27924 12.5475 6.52495C12.6705 6.91568 12.4725 7.3283 11.9595 7.32611C10.2641 7.31845 8.56864 7.32282 6.87319 7.32392C6.79608 7.32392 6.71787 7.32556 6.64185 7.33705C6.36128 7.37974 6.18189 7.57291 6.17369 7.85583C6.16493 8.15189 6.16931 8.44849 6.16931 8.7451C6.16931 11.5448 6.16931 14.345 6.16931 17.1447C6.16931 17.2131 6.16876 17.282 6.17587 17.3493C6.20322 17.6021 6.39573 17.7948 6.64841 17.8227C6.71623 17.8303 6.78514 17.8293 6.85296 17.8293C9.8971 17.8293 12.9418 17.8293 15.9859 17.8293C16.0499 17.8293 16.1139 17.8293 16.1774 17.8232C16.418 17.7992 16.604 17.6339 16.6483 17.3969C16.6641 17.3127 16.6685 17.2251 16.6685 17.1386C16.6696 15.4422 16.669 13.7458 16.6696 12.0493C16.6696 11.7286 16.785 11.5349 17.024 11.449C17.4446 11.2969 17.8285 11.5524 17.8296 11.9984C17.8334 13.7633 17.8389 15.5281 17.8274 17.293C17.8208 18.2665 17.0688 18.996 16.0948 18.9987C14.5361 19.0031 12.9773 18.9998 11.4186 18.9998L11.4192 18.9987Z" fill="black"/>
<path d="M8.56744 16.0783C8.09599 16.0745 7.83785 15.7593 7.92645 15.3373C8.11131 14.4596 8.31421 13.5856 8.47665 12.704C8.53462 12.3905 8.67901 12.1617 8.89395 11.9472C11.1199 9.72431 13.3442 7.50142 15.5625 5.27143C15.8048 5.02791 16.0608 4.95677 16.3895 5.02408C17.7819 5.30809 18.8008 6.38232 18.9939 7.78763C19.025 8.01528 18.9408 8.20463 18.7795 8.36716C18.0751 9.07473 17.3728 9.78396 16.6706 10.4932C15.1469 12.0309 13.6215 13.5676 12.1005 15.1086C11.8265 15.3866 11.5 15.5354 11.121 15.6044C10.3154 15.751 9.51196 15.9108 8.7069 16.0641C8.64893 16.075 8.58931 16.0761 8.56798 16.0783H8.56744ZM9.26257 14.7288C9.29976 14.7266 9.32164 14.7277 9.34242 14.7239C9.89262 14.6204 10.4439 14.5198 10.9925 14.4092C11.0751 14.3928 11.1631 14.3452 11.2227 14.2861C12.4987 13.0154 13.7708 11.7414 15.0435 10.468C15.9262 9.58476 16.8084 8.70042 17.6939 7.81937C17.7578 7.75589 17.7737 7.70281 17.7458 7.61744C17.5205 6.91971 17.0622 6.46112 16.3616 6.24278C16.2844 6.2187 16.238 6.23457 16.1827 6.28984C14.0153 8.46128 11.8468 10.6305 9.67987 12.8025C9.6383 12.8441 9.60658 12.9065 9.59455 12.9645C9.52837 13.2857 9.46876 13.6081 9.4086 13.9304C9.35937 14.1925 9.31234 14.4552 9.26202 14.7299L9.26257 14.7288Z" fill="black"/>
</g>
<defs>
<clipPath id="clip0_74_4095">
<rect width="14" height="14" fill="white" transform="translate(5 5)"/>
</clipPath>
</defs>
</svg>
