<svg width="24" height="24" viewBox="0 0 24 24" fill="none" xmlns="http://www.w3.org/2000/svg">
<path fill-rule="evenodd" clip-rule="evenodd" d="M20 12C20 16.4183 16.4183 20 12 20C7.58172 20 4 16.4183 4 12C4 7.58172 7.58172 4 12 4C16.4183 4 20 7.58172 20 12ZM22 12C22 17.5228 17.5228 22 12 22C6.47715 22 2 17.5228 2 12C2 6.47715 6.47715 2 12 2C17.5228 2 22 6.47715 22 12ZM16.7682 9.64018C17.1218 9.2159 17.0645 8.58534 16.6402 8.23177C16.2159 7.87821 15.5853 7.93553 15.2318 8.35981L10.872 13.5916L8.64018 11.7318C8.21591 11.3782 7.58534 11.4355 7.23178 11.8598C6.87821 12.2841 6.93554 12.9147 7.35982 13.2682L10.3598 15.7682C10.7841 16.1218 11.4147 16.0645 11.7682 15.6402L16.7682 9.64018Z" fill="#E0E0E0"/>
</svg>
