<svg width="16" height="16" viewBox="0 0 16 16" fill="none" xmlns="http://www.w3.org/2000/svg">
<g clip-path="url(#clip0_5_3833)">
<path fill-rule="evenodd" clip-rule="evenodd" d="M8.36336 1.70711C8.75388 2.09763 8.75388 2.7308 8.36336 3.12132L3.41361 8.07107L8.36336 13.0208C8.75388 13.4113 8.75388 14.0445 8.36336 14.435C7.97283 14.8256 7.33967 14.8256 6.94914 14.435L1.29229 8.77817C0.901765 8.38765 0.901764 7.75449 1.29229 7.36396L6.94914 1.70711C7.33967 1.31658 7.97283 1.31658 8.36336 1.70711Z" fill="#777777"/>
<path fill-rule="evenodd" clip-rule="evenodd" d="M13.7784 1.70711C14.1689 2.09763 14.1689 2.7308 13.7784 3.12132L8.82865 8.07107L13.7784 13.0208C14.1689 13.4113 14.1689 14.0445 13.7784 14.435C13.3879 14.8256 12.7547 14.8256 12.3642 14.435L6.70733 8.77817C6.3168 8.38765 6.3168 7.75449 6.70733 7.36396L12.3642 1.70711C12.7547 1.31658 13.3879 1.31658 13.7784 1.70711Z" fill="#777777"/>
</g>
<defs>
<clipPath id="clip0_5_3833">
<rect width="16" height="16" fill="white"/>
</clipPath>
</defs>
</svg>
