<svg width="16" height="16" viewBox="0 0 16 16" fill="none" xmlns="http://www.w3.org/2000/svg">
<path fill-rule="evenodd" clip-rule="evenodd" d="M7.99996 15.9999C12.4182 15.9999 15.9999 12.4182 15.9999 7.99996C15.9999 3.5817 12.4182 0 7.99996 0C3.5817 0 0 3.5817 0 7.99996C0 12.4182 3.5817 15.9999 7.99996 15.9999ZM11.7656 4.23436C12.078 4.54677 12.078 5.0533 11.7656 5.36572L9.13134 8.00001L11.7657 10.6343C12.0781 10.9468 12.0781 11.4533 11.7657 11.7657C11.4532 12.0781 10.9467 12.0781 10.6343 11.7657L7.99997 9.13138L5.36564 11.7657C5.05322 12.0781 4.54669 12.0781 4.23428 11.7657C3.92186 11.4533 3.92186 10.9468 4.23428 10.6343L6.86861 8.00001L4.23432 5.36572C3.9219 5.0533 3.9219 4.54678 4.23432 4.23436C4.54673 3.92194 5.05326 3.92194 5.36568 4.23436L7.99997 6.86865L10.6343 4.23436C10.9467 3.92194 11.4532 3.92194 11.7656 4.23436Z" fill="#27252E"/>
</svg>
