<svg width="14" height="14" viewBox="0 0 14 14" fill="none" xmlns="http://www.w3.org/2000/svg">
<g clip-path="url(#clip0_21_3870)">
<path d="M6.41917 13.9987C4.88343 13.9987 3.34768 13.9987 1.81139 13.9987C0.73451 13.9987 0 13.2649 0 12.1862C0 9.09873 0 6.01176 0.000546918 2.92479C0.000546918 2.02129 0.57481 1.33725 1.46082 1.18128C1.56309 1.16323 1.66919 1.16049 1.77365 1.16049C3.50082 1.15939 5.22799 1.15939 6.9557 1.16049C7.27237 1.16049 7.47035 1.27924 7.54747 1.52495C7.67052 1.91568 7.47254 2.3283 6.95953 2.32611C5.26408 2.31845 3.56864 2.32282 1.87319 2.32392C1.79608 2.32392 1.71787 2.32556 1.64185 2.33705C1.36128 2.37974 1.18189 2.57291 1.17369 2.85583C1.16493 3.15189 1.16931 3.44849 1.16931 3.7451C1.16931 6.54477 1.16931 9.34499 1.16931 12.1447C1.16931 12.2131 1.16876 12.282 1.17587 12.3493C1.20322 12.6021 1.39573 12.7948 1.64841 12.8227C1.71623 12.8303 1.78514 12.8293 1.85296 12.8293C4.8971 12.8293 7.94179 12.8293 10.9859 12.8293C11.0499 12.8293 11.1139 12.8293 11.1774 12.8232C11.418 12.7992 11.604 12.6339 11.6483 12.3969C11.6641 12.3127 11.6685 12.2251 11.6685 12.1386C11.6696 10.4422 11.669 8.74576 11.6696 7.04932C11.6696 6.72864 11.785 6.53492 12.024 6.449C12.4446 6.29687 12.8285 6.55243 12.8296 6.99843C12.8334 8.76327 12.8389 10.5281 12.8274 12.293C12.8208 13.2665 12.0688 13.996 11.0948 13.9987C9.53606 14.0031 7.97734 13.9998 6.41863 13.9998L6.41917 13.9987Z" fill="black"/>
<path d="M3.56744 11.0783C3.09599 11.0745 2.83785 10.7593 2.92645 10.3373C3.11131 9.45956 3.31421 8.58562 3.47665 7.70402C3.53462 7.39045 3.67901 7.16171 3.89395 6.94719C6.1199 4.72431 8.34422 2.50142 10.5625 0.271428C10.8048 0.0279069 11.0608 -0.0432341 11.3895 0.0240762C12.7819 0.308093 13.8008 1.38232 13.9939 2.78763C14.025 3.01528 13.9408 3.20463 13.7795 3.36716C13.0751 4.07473 12.3728 4.78396 11.6706 5.49318C10.1469 7.03092 8.6215 8.56756 7.10052 10.1086C6.82652 10.3866 6.50001 10.5354 6.12099 10.6044C5.31538 10.751 4.51196 10.9108 3.7069 11.0641C3.64893 11.075 3.58931 11.0761 3.56798 11.0783H3.56744ZM4.26257 9.7288C4.29976 9.72661 4.32164 9.72771 4.34242 9.72388C4.89262 9.62045 5.44391 9.51976 5.99247 9.40921C6.07505 9.3928 6.16311 9.34519 6.22272 9.28609C7.49868 8.0154 8.77081 6.74143 10.0435 5.468C10.9262 4.58476 11.8084 3.70042 12.6939 2.81937C12.7578 2.75589 12.7737 2.70281 12.7458 2.61744C12.5205 1.91971 12.0622 1.46112 11.3616 1.24278C11.2844 1.2187 11.238 1.23457 11.1827 1.28984C9.01528 3.46128 6.84675 5.63053 4.67987 7.80252C4.6383 7.84411 4.60658 7.9065 4.59455 7.9645C4.52837 8.28573 4.46876 8.60806 4.4086 8.93038C4.35937 9.19251 4.31234 9.45518 4.26202 9.7299L4.26257 9.7288Z" fill="black"/>
</g>
<defs>
<clipPath id="clip0_21_3870">
<rect width="14" height="14" fill="white"/>
</clipPath>
</defs>
</svg>
