<svg width="24" height="24" viewBox="0 0 24 24" fill="none" xmlns="http://www.w3.org/2000/svg">
<path fill-rule="evenodd" clip-rule="evenodd" d="M12 22C17.5228 22 22 17.5228 22 12C22 6.47715 17.5228 2 12 2C6.47715 2 2 6.47715 2 12C2 17.5228 6.47715 22 12 22ZM16.7682 9.64018C17.1218 9.2159 17.0645 8.58534 16.6402 8.23177C16.2159 7.87821 15.5853 7.93553 15.2318 8.35981L10.872 13.5916L8.64018 11.7318C8.21591 11.3782 7.58534 11.4355 7.23178 11.8598C6.87821 12.2841 6.93554 12.9147 7.35981 13.2682L10.3598 15.7682C10.7841 16.1218 11.4147 16.0645 11.7682 15.6402L16.7682 9.64018Z" fill="#5429FF"/>
</svg>
