<svg width="24" height="24" viewBox="0 0 24 24" fill="none" xmlns="http://www.w3.org/2000/svg">
<path fill-rule="evenodd" clip-rule="evenodd" d="M6.2981 4.88384C5.80995 4.39569 5.09764 4.31654 4.70711 4.70707C4.31659 5.09759 4.39573 5.8099 4.88389 6.29806L10.364 11.7782L4.88384 17.2584C4.39569 17.7465 4.31654 18.4588 4.70707 18.8494C5.09759 19.2399 5.8099 19.1607 6.29806 18.6726L11.7782 13.1924L17.2583 18.6724C17.7464 19.1606 18.4587 19.2397 18.8492 18.8492C19.2398 18.4587 19.1606 17.7464 18.6725 17.2582L13.1924 11.7782L18.6724 6.29821C19.1606 5.81005 19.2397 5.09774 18.8492 4.70722C18.4587 4.31669 17.7464 4.39584 17.2582 4.88399L11.7782 10.364L6.2981 4.88384Z" fill="#111111"/>
</svg>
