<svg width="24" height="24" viewBox="0 0 24 24" fill="none" xmlns="http://www.w3.org/2000/svg">
<path fill-rule="evenodd" clip-rule="evenodd" d="M17.6572 6.09315C17.9501 6.38604 17.9821 6.82888 17.5916 7.21941L7.47026 17.3407C7.07973 17.7313 6.63638 17.6997 6.34349 17.4069C6.0506 17.114 6.01907 16.6706 6.4096 16.2801L16.5309 6.15875C16.9215 5.76822 17.3643 5.80025 17.6572 6.09315Z" fill="#747475"/>
<path fill-rule="evenodd" clip-rule="evenodd" d="M17.6569 17.4067C17.364 17.6996 16.9211 17.7316 16.5306 17.3411L6.40925 7.21977C6.01873 6.82925 6.05025 6.3859 6.34315 6.093C6.63604 5.80011 7.07939 5.76859 7.46991 6.15911L17.5913 16.2805C17.9818 16.671 17.9497 17.1138 17.6569 17.4067Z" fill="#747475"/>
</svg>
