<svg width="24" height="24" viewBox="0 0 24 24" fill="none" xmlns="http://www.w3.org/2000/svg">
<path d="M7 1H5C2.79086 1 1 2.79086 1 5V7" stroke="#7A797D" stroke-width="1.5" stroke-linecap="round"/>
<path d="M17 1H19C21.2091 1 23 2.79086 23 5V7" stroke="#7A797D" stroke-width="1.5" stroke-linecap="round"/>
<path d="M1 17L1 19C1 21.2091 2.79086 23 5 23L7 23" stroke="#7A797D" stroke-width="1.5" stroke-linecap="round"/>
<path d="M23 17L23 19C23 21.2091 21.2091 23 19 23L17 23" stroke="#7A797D" stroke-width="1.5" stroke-linecap="round"/>
<g clip-path="url(#clip0_28_4276)">
<path d="M8.04883 11.125C7.20117 11.125 6.35352 11.125 5.50586 11.125C5.17062 11.125 5 10.9555 5 10.6219C5 8.91289 5 7.20445 5 5.49547C5 5.17008 5.17172 5 5.4993 5C7.20828 5 8.91672 5 10.6257 5C10.9511 5 11.125 5.17281 11.125 5.49602C11.125 7.205 11.125 8.91344 11.125 10.6224C11.125 10.9566 10.9555 11.125 10.6191 11.125C9.76219 11.125 8.90578 11.125 8.04883 11.125ZM6.7593 6.75602V9.36406H9.36789V6.75602H6.7593Z" fill="#7A797D"/>
<path d="M19.0004 8.07617C19.0004 8.92383 19.0004 9.77148 19.0004 10.6191C19.0004 10.9555 18.8314 11.125 18.4979 11.125C16.7938 11.125 15.0892 11.125 13.3851 11.125C13.0428 11.125 12.876 10.9566 12.876 10.6115C12.876 8.90742 12.876 7.20281 12.876 5.49875C12.876 5.17172 13.0466 5 13.3714 5C15.0804 5 16.7889 5 18.4979 5C18.8314 5 19.0004 5.17008 19.0004 5.50586C19.0004 6.36281 19.0004 7.21922 19.0004 8.07617V8.07617ZM17.2389 9.37227V6.7593H14.6358V9.37227H17.2389Z" fill="#7A797D"/>
<path d="M5 15.9238C5 15.0762 5 14.2285 5 13.3809C5 13.044 5.16789 12.875 5.50203 12.875C7.20609 12.875 8.9107 12.875 10.6148 12.875C10.9577 12.875 11.1245 13.0429 11.125 13.3874C11.125 15.0915 11.125 16.7961 11.125 18.5002C11.125 18.8272 10.9544 18.9995 10.6295 18.9995C8.91617 18.9995 7.20281 18.9995 5.48945 18.9995C5.175 18.9995 5.00055 18.8234 5.00055 18.5073C5 17.6459 5.00055 16.7846 5.00055 15.9233L5 15.9238ZM6.75984 14.631V17.2391H9.36789V14.631H6.75984Z" fill="#7A797D"/>
<path d="M15.5001 17.2499C15.5001 16.9393 15.5088 16.644 15.4984 16.3492C15.4705 15.5781 15.5783 15.4698 16.3559 15.4982C16.6469 15.5086 16.9383 15.4999 17.2501 15.4999V15.35C17.2501 14.6894 17.2501 14.0288 17.2501 13.3682C17.2501 13.0499 17.4223 12.876 17.7373 12.8749C18.0015 12.8743 18.2656 12.8732 18.5303 12.8749C18.8179 12.8765 18.9995 13.057 18.9995 13.3452C19.0006 15.0722 19.0006 16.7987 18.9995 18.5257C18.9995 18.8222 18.819 18.9993 18.5194 18.9993C16.7972 18.9999 15.0746 18.9999 13.3525 18.9993C13.0555 18.9993 12.8762 18.82 12.8751 18.523C12.874 18.254 12.8734 17.9854 12.8751 17.7164C12.8772 17.4282 13.0561 17.2504 13.3476 17.2499C14.0579 17.2488 14.7683 17.2499 15.5001 17.2499V17.2499Z" fill="#7A797D"/>
<path d="M12.8754 14.1876C12.8754 13.9049 12.8738 13.6227 12.8754 13.34C12.877 13.0578 13.0559 12.8762 13.3359 12.8757C13.9052 12.8735 14.475 12.8735 15.0443 12.8757C15.315 12.8768 15.4977 13.0605 15.4988 13.3323C15.5009 13.9016 15.5009 14.4714 15.4988 15.0407C15.4977 15.3136 15.3161 15.4974 15.0449 15.4985C14.4706 15.5012 13.8964 15.5012 13.3227 15.4985C13.0602 15.4968 12.8781 15.3114 12.8754 15.0484C12.8727 14.7613 12.8749 14.4742 12.8749 14.1871L12.8754 14.1876Z" fill="#7A797D"/>
</g>
<defs>
<clipPath id="clip0_28_4276">
<rect width="14" height="14" fill="white" transform="translate(5 5)"/>
</clipPath>
</defs>
</svg>
