<svg width="24" height="24" viewBox="0 0 24 24" fill="none" xmlns="http://www.w3.org/2000/svg">
<path d="M11.9999 16.9999C7.86807 16.9999 4.01991 15.7855 1.70596 13.7509C1.50678 13.5758 1.38532 13.3288 1.36828 13.0641C1.35124 12.7995 1.44003 12.5389 1.61512 12.3397C1.7902 12.1406 2.03724 12.0191 2.30188 12.0021C2.56652 11.985 2.82709 12.0738 3.02627 12.2489C4.98575 13.9716 8.34024 14.9999 11.9999 14.9999C15.6596 14.9999 19.0141 13.9716 20.9735 12.2489C21.0722 12.1622 21.1869 12.0958 21.3112 12.0534C21.4355 12.0111 21.5669 11.9936 21.6979 12.0021C21.829 12.0105 21.9571 12.0447 22.0749 12.1026C22.1927 12.1605 22.298 12.2411 22.3847 12.3397C22.4714 12.4384 22.5378 12.5531 22.5802 12.6774C22.6225 12.8017 22.64 12.9331 22.6315 13.0641C22.6231 13.1952 22.5889 13.3233 22.531 13.4411C22.4731 13.5589 22.3925 13.6642 22.2938 13.7509C19.9799 15.7855 16.1318 16.9999 11.9999 16.9999Z" fill="#7A797D"/>
<path d="M12 20C11.7348 20 11.4804 19.8946 11.2929 19.7071C11.1054 19.5196 11 19.2652 11 19V16C11 15.7348 11.1054 15.4804 11.2929 15.2929C11.4804 15.1054 11.7348 15 12 15C12.2652 15 12.5196 15.1054 12.7071 15.2929C12.8946 15.4804 13 15.7348 13 16V19C13 19.2652 12.8946 19.5196 12.7071 19.7071C12.5196 19.8946 12.2652 20 12 20Z" fill="#7A797D"/>
<path d="M7.74894 19.6673C7.69181 19.6675 7.63478 19.6626 7.57853 19.6526C7.44909 19.6305 7.32529 19.583 7.21422 19.5129C7.10314 19.4429 7.00696 19.3516 6.93118 19.2443C6.85541 19.1371 6.80151 19.0159 6.77259 18.8879C6.74366 18.7598 6.74027 18.6272 6.76261 18.4978L7.26749 15.5628C7.28974 15.4334 7.33726 15.3097 7.40733 15.1986C7.47741 15.0876 7.56867 14.9914 7.6759 14.9157C7.78313 14.8399 7.90424 14.786 8.0323 14.757C8.16036 14.7281 8.29287 14.7246 8.42227 14.7469C8.55167 14.7691 8.67542 14.8167 8.78645 14.8867C8.89749 14.9568 8.99363 15.0481 9.06939 15.1553C9.14516 15.2625 9.19906 15.3836 9.22802 15.5117C9.25698 15.6398 9.26044 15.7723 9.23819 15.9017L8.73331 18.8367C8.69338 19.069 8.57273 19.2796 8.39263 19.4316C8.21254 19.5835 7.98457 19.667 7.74894 19.6673Z" fill="#7A797D"/>
<path d="M3.63541 18.3057C3.47523 18.3054 3.31746 18.2668 3.17532 18.1929C3.03319 18.119 2.91085 18.0122 2.81857 17.8812C2.7263 17.7503 2.66678 17.5992 2.64502 17.4405C2.62326 17.2818 2.6399 17.1202 2.69352 16.9692L3.67204 14.2246C3.71616 14.1009 3.7842 13.9871 3.8723 13.8897C3.96039 13.7923 4.0668 13.7133 4.18546 13.657C4.30412 13.6007 4.4327 13.5684 4.56386 13.5618C4.69501 13.5552 4.82618 13.5745 4.94988 13.6187C5.07357 13.6628 5.18736 13.7308 5.28475 13.8189C5.38214 13.907 5.46123 14.0134 5.5175 14.1321C5.57377 14.2507 5.60612 14.3793 5.61269 14.5105C5.61927 14.6416 5.59995 14.7728 5.55583 14.8965L4.57731 17.6411C4.50797 17.8355 4.38025 18.0037 4.21164 18.1226C4.04303 18.2416 3.84177 18.3055 3.63541 18.3057Z" fill="#7A797D"/>
<path d="M16.2518 19.6673C16.0161 19.667 15.7882 19.5835 15.6081 19.4316C15.428 19.2796 15.3073 19.069 15.2674 18.8367L14.7625 15.9017C14.7176 15.6403 14.7783 15.3719 14.9313 15.1553C15.0843 14.9387 15.3171 14.7918 15.5784 14.7469C15.8398 14.702 16.1082 14.7627 16.3248 14.9157C16.5414 15.0687 16.6883 15.3015 16.7332 15.5628L17.2381 18.4979C17.2604 18.6273 17.257 18.7598 17.2281 18.8879C17.1992 19.016 17.1453 19.1371 17.0695 19.2444C16.9937 19.3516 16.8975 19.4429 16.7865 19.5129C16.6754 19.583 16.5516 19.6305 16.4222 19.6527C16.3659 19.6626 16.3089 19.6675 16.2518 19.6673Z" fill="#7A797D"/>
<path d="M20.3643 18.3066C20.1579 18.3065 19.9566 18.2426 19.788 18.1236C19.6194 18.0047 19.4917 17.8365 19.4224 17.6421L18.4439 14.8975C18.3997 14.7738 18.3804 14.6426 18.387 14.5114C18.3936 14.3803 18.4259 14.2517 18.4822 14.1331C18.5958 13.8934 18.8 13.7087 19.0498 13.6196C19.2996 13.5305 19.5746 13.5443 19.8142 13.658C20.0539 13.7716 20.2386 13.9758 20.3276 14.2256L21.3062 16.9702C21.3598 17.1212 21.3764 17.2828 21.3547 17.4414C21.3329 17.6001 21.2734 17.7513 21.1811 17.8822C21.0888 18.0131 20.9665 18.12 20.8244 18.1939C20.6822 18.2677 20.5245 18.3064 20.3643 18.3067L20.3643 18.3066Z" fill="#7A797D"/>
</svg>
