<svg width="24" height="24" viewBox="0 0 24 24" fill="none" xmlns="http://www.w3.org/2000/svg">
<circle cx="12" cy="7" r="5" fill="white"/>
<path fill-rule="evenodd" clip-rule="evenodd" d="M10.045 13.3685C8.73986 12.9897 7.28827 12.7205 6.18284 13.511C5.73736 13.8296 5.31777 14.185 4.92869 14.574C4.0001 15.5026 3.26351 16.605 2.76096 17.8183C1.93099 19.822 3.75792 21.6451 5.92672 21.6451H11.9998H18.0728C20.2416 21.6451 22.0685 19.822 21.2385 17.8183C20.736 16.605 19.9994 15.5026 19.0708 14.574C18.6817 14.185 18.2621 13.8296 17.8167 13.511C16.7112 12.7205 15.2596 12.9897 13.9545 13.3685C13.3341 13.5486 12.6782 13.6451 11.9998 13.6451C11.3213 13.6451 10.6654 13.5486 10.045 13.3685Z" fill="white"/>
</svg>
