<svg width="35" height="26" viewBox="0 0 35 26" fill="none" xmlns="http://www.w3.org/2000/svg">
<path d="M9.32307 14.43V13.436H14.8671V14.43H9.32307ZM18.4748 12.75C18.0548 12.75 17.6721 12.6567 17.3268 12.47C16.9908 12.274 16.7248 12.0033 16.5288 11.658C16.3328 11.3033 16.2348 10.8833 16.2348 10.398C16.2348 9.91267 16.3328 9.49733 16.5288 9.152C16.7341 8.79733 17.0048 8.52667 17.3408 8.34C17.6861 8.144 18.0688 8.046 18.4888 8.046C18.9088 8.046 19.2868 8.144 19.6228 8.34C19.9588 8.52667 20.2248 8.79733 20.4208 9.152C20.6168 9.49733 20.7148 9.91267 20.7148 10.398C20.7148 10.8833 20.6121 11.3033 20.4068 11.658C20.2108 12.0033 19.9448 12.274 19.6088 12.47C19.2728 12.6567 18.8948 12.75 18.4748 12.75ZM17.6068 18L23.3048 8.2H24.4808L18.7828 18H17.6068ZM18.4748 11.84C18.8015 11.84 19.0861 11.7187 19.3288 11.476C19.5808 11.2333 19.7068 10.874 19.7068 10.398C19.7068 9.91267 19.5855 9.54867 19.3428 9.306C19.1001 9.054 18.8155 8.928 18.4888 8.928C18.1621 8.928 17.8681 9.054 17.6068 9.306C17.3548 9.54867 17.2288 9.91267 17.2288 10.398C17.2288 10.874 17.3548 11.2333 17.6068 11.476C17.8588 11.7187 18.1481 11.84 18.4748 11.84ZM23.7108 18.168C23.2908 18.168 22.9081 18.0747 22.5628 17.888C22.2268 17.692 21.9608 17.4213 21.7648 17.076C21.5688 16.7213 21.4708 16.3013 21.4708 15.816C21.4708 15.3307 21.5688 14.9153 21.7648 14.57C21.9701 14.2153 22.2408 13.9447 22.5768 13.758C22.9128 13.562 23.2908 13.464 23.7108 13.464C24.1308 13.464 24.5088 13.562 24.8448 13.758C25.1808 13.9447 25.4468 14.2153 25.6428 14.57C25.8388 14.9153 25.9368 15.3307 25.9368 15.816C25.9368 16.3013 25.8388 16.7213 25.6428 17.076C25.4468 17.4213 25.1808 17.692 24.8448 17.888C24.5088 18.0747 24.1308 18.168 23.7108 18.168ZM23.6968 17.258C24.0328 17.258 24.3221 17.1367 24.5648 16.894C24.8168 16.6513 24.9428 16.292 24.9428 15.816C24.9428 15.3307 24.8215 14.9667 24.5788 14.724C24.3361 14.4813 24.0468 14.36 23.7108 14.36C23.3841 14.36 23.0948 14.4813 22.8428 14.724C22.5908 14.9667 22.4648 15.3307 22.4648 15.816C22.4648 16.292 22.5861 16.6513 22.8288 16.894C23.0808 17.1367 23.3701 17.258 23.6968 17.258Z" fill="white"/>
<rect x="0.5" y="0.5" width="34" height="25" rx="12.5" stroke="white"/>
</svg>
