<svg width="16" height="16" viewBox="0 0 16 16" fill="none" xmlns="http://www.w3.org/2000/svg">
<g clip-path="url(#clip0_30_3329)">
<path fill-rule="evenodd" clip-rule="evenodd" d="M8.36385 1.70711C8.75437 2.09763 8.75437 2.7308 8.36385 3.12132L3.4141 8.07107L8.36385 13.0208C8.75437 13.4113 8.75437 14.0445 8.36385 14.435C7.97332 14.8256 7.34016 14.8256 6.94963 14.435L1.29278 8.77817C0.902253 8.38765 0.902253 7.75449 1.29278 7.36396L6.94963 1.70711C7.34016 1.31658 7.97332 1.31658 8.36385 1.70711Z" fill="#777777"/>
<path fill-rule="evenodd" clip-rule="evenodd" d="M13.7782 1.70711C14.1687 2.09763 14.1687 2.7308 13.7782 3.12132L8.8284 8.07107L13.7782 13.0208C14.1687 13.4113 14.1687 14.0445 13.7782 14.435C13.3876 14.8256 12.7545 14.8256 12.3639 14.435L6.70708 8.77817C6.31656 8.38765 6.31656 7.75449 6.70708 7.36396L12.3639 1.70711C12.7545 1.31658 13.3876 1.31658 13.7782 1.70711Z" fill="#777777"/>
</g>
<defs>
<clipPath id="clip0_30_3329">
<rect width="16" height="16" fill="white"/>
</clipPath>
</defs>
</svg>
